{"accessors" : [{"bufferView" : 0, "byteOffset" : 0, "componentType" : 5123, "count" : 61110, "type" : "SCALAR", "max" : [61109], "min" : [0]}, {"bufferView" : 1, "byteOffset" : 0, "componentType" : 5126, "count" : 61110, "type" : "VEC3", "max" : [29.516000747680664, 0.34299999475479126, 47], "min" : [-25, -28.66699981689453, -34], "name" : "POSITION"}, {"bufferView" : 1, "byteOffset" : 12, "componentType" : 5126, "count" : 61110, "type" : "VEC3", "max" : [1.0000044107437134, 1.0000044107437134, 0.9999910593032837], "min" : [-0.9996301531791687, -1.0000044107437134, -0.9997833371162415], "name" : "NORMAL"}], "asset" : {"generator" : "Aspose.3D 24.4.1", "version" : "2.0"}, "buffers" : [{"uri" : "data:application/octet-stream;base64,", "byteLength" : 1588868}], "bufferViews" : [{"buffer" : 0, "byteOffset" : 0, "byteLength" : 122220, "target" : 34963}, {"buffer" : 0, "byteOffset" : 122224, "byteLength" : 1466640, "byteStride" : 24, "target" : 34962}], "meshes" : [{"primitives" : [{"attributes" : {"POSITION" : 1, "NORMAL" : 2}, "indices" : 0, "mode" : 4}], "name" : "exported"}], "nodes" : [{"mesh" : 0, "name" : "exported"}], "scene" : 0, "scenes" : [{"nodes" : [0]}]}